<?xml version="1.0" encoding="UTF-8" standalone="no"?><!DOCTYPE svg PUBLIC "-//W3C//DTD SVG 1.1//EN" "http://www.w3.org/Graphics/SVG/1.1/DTD/svg11.dtd"><svg width="100%" height="100%" viewBox="0 0 123 123" version="1.1" xmlns="http://www.w3.org/2000/svg" xmlns:xlink="http://www.w3.org/1999/xlink" xml:space="preserve" xmlns:serif="http://www.serif.com/" style="fill-rule:evenodd;clip-rule:evenodd;stroke-linejoin:round;stroke-miterlimit:2;"><path d="M17.89,0l88.9,0c8.85,0 16.1,7.24 16.1,16.1l0,90.68c0,8.85 -7.24,16.1 -16.1,16.1l-90.69,0c-8.85,0 -16.1,-7.24 -16.1,-16.1l0,-88.9c0,-9.83 8.05,-17.88 17.89,-17.88Zm16.56,31.06l50.24,0l0,12.98l-31.4,0l0,9.67l29.11,0l0,12.39l-29.11,0l0,11.97l32.33,0l0,13.75l-51.17,0l0,-60.76Z" style="fill:#b3a369;"/></svg>